<?xml version="1.0" encoding="UTF-8" standalone="no"?>
<svg
   xmlns:dc="http://purl.org/dc/elements/1.1/"
   xmlns:cc="http://creativecommons.org/ns#"
   xmlns:rdf="http://www.w3.org/1999/02/22-rdf-syntax-ns#"
   xmlns:svg="http://www.w3.org/2000/svg"
   xmlns="http://www.w3.org/2000/svg"
   xmlns:sodipodi="http://sodipodi.sourceforge.net/DTD/sodipodi-0.dtd"
   xmlns:inkscape="http://www.inkscape.org/namespaces/inkscape"
   sodipodi:docname="couch.svg"
   inkscape:version="1.1-dev (bc69992, 2020-04-15)"
   id="svg976"
   version="1.1"
   viewBox="0 0 243.15248 134.32076"
   height="134.32076mm"
   width="243.15248mm">
  <defs
     id="defs970" />
  <sodipodi:namedview
     inkscape:window-maximized="0"
     inkscape:window-y="23"
     inkscape:window-x="0"
     inkscape:window-height="1034"
     inkscape:window-width="1920"
     showgrid="false"
     inkscape:current-layer="g1212"
     inkscape:document-units="mm"
     inkscape:cy="229.47096"
     inkscape:cx="397.4743"
     inkscape:zoom="0.66124763"
     inkscape:pageshadow="2"
     inkscape:pageopacity="0.0"
     borderopacity="1.0"
     bordercolor="#666666"
     pagecolor="#ffffff"
     id="base" />
  <metadata
     id="metadata973">
    <rdf:RDF>
      <cc:Work
         rdf:about="">
        <dc:format>image/svg+xml</dc:format>
        <dc:type
           rdf:resource="http://purl.org/dc/dcmitype/StillImage" />
        <dc:title></dc:title>
      </cc:Work>
    </rdf:RDF>
  </metadata>
  <g
     transform="translate(-32.32042,-44.494772)"
     inkscape:label="Layer 2"
     id="layer3"
     inkscape:groupmode="layer">
    <g
       id="g1212">
      <path
         style="fill:#bcb289;fill-opacity:1;stroke:#bcb289;stroke-width:0.264583px;stroke-linecap:butt;stroke-linejoin:miter;stroke-opacity:1"
         d="m 43.18286,172.1422 c 0.196413,6.17299 0.196413,6.17299 0.196413,6.17299 l 15.656943,-0.11224 4.0405,-6.08881 z"
         id="path1056" />
      <path
         style="fill:#bcb289;fill-opacity:1;stroke:#bcb289;stroke-width:0.264583px;stroke-linecap:butt;stroke-linejoin:miter;stroke-opacity:1"
         d="m 245.46046,172.31055 3.90021,5.94852 v 0 l 16.13394,0.42088 0.36478,-6.08881 z"
         id="path1058" />
      <path
         style="fill:#74b0a8;fill-opacity:1;stroke:#74b0a8;stroke-width:0.264583px;stroke-linecap:butt;stroke-linejoin:miter;stroke-opacity:1"
         d="m 63.076716,172.11414 -22.421178,-0.0176 c -5.916101,-17.08858 -6.551854,-34.37538 -7.85493,-51.03637 -1.449213,-19.67255 1.694875,-27.765138 8.313731,-28.670872 8.536916,-1.168205 16.030531,11.987052 18.876248,30.828812 2.114214,13.12289 2.157935,21.5351 2.805315,33.77167 0.473198,4.81576 0.327349,11.41681 0.280814,15.12439"
         id="path1064"
         sodipodi:nodetypes="cccsccc" />
      <path
         style="fill:#97c4be;fill-opacity:1;stroke:#97c4be;stroke-width:0.264583px;stroke-linecap:butt;stroke-linejoin:miter;stroke-opacity:1"
         d="m 38.010107,93.531595 c 3.165001,-1.95892 6.514214,-1.539753 9.463307,0.722192 1.674994,1.310142 3.22353,2.936399 4.315766,4.756793 1.703718,2.28645 2.847639,4.89677 4.000746,7.60056 0.854329,2.45039 1.787788,4.98715 2.425649,7.55187 0.444028,2.20558 1.13031,4.94733 1.512093,7.33995 0.323521,2.27874 0.719263,4.5991 1.102567,6.89892 0.335051,2.6492 0.568224,5.40156 0.81905,8.11605 0.09275,1.94212 0.306388,3.49525 0.366537,5.58444 0.79617,-2.97449 3.520686,-5.47405 5.93385,-6.95907 -1.947387,-0.80811 -3.976442,-1.75578 -4.914301,-3.74873 -0.768962,-1.90433 -1.020065,-4.21048 -1.094004,-6.26889 0.07209,-2.60556 0.06339,-5.56498 0.707349,-8.13609 1.168287,-1.75743 2.788889,-3.48631 4.3874,-4.68519 -0.356701,-3.17225 -0.258038,-4.30438 -0.23499,-5.53547 0.0083,-0.44517 -0.115101,-2.93345 -0.332079,-3.43973 -0.427312,-2.8454 -1.011626,-5.77688 -2.079093,-8.38237 -0.81629,-2.712155 -1.975393,-5.538927 -2.677665,-8.348013 -0.42658,-1.616113 -1.292967,-4.400154 -1.467572,-5.48237 -7.333589,4.125142 -15.721791,6.962448 -22.23461,12.415148 z"
         id="path1068"
         sodipodi:nodetypes="ccccccccccccccsccccc" />
      <path
         style="fill:#89bcb5;fill-opacity:1;stroke:#89bcb5;stroke-width:0.264583px;stroke-linecap:butt;stroke-linejoin:miter;stroke-opacity:1"
         d="m 61.302023,63.135282 c 0,0 0.09883,-3.802038 0.243293,-6.716676 0.187159,-3.776054 0.574976,-7.779716 2.35917,-8.850233 2.244531,-1.34672 6.053265,-1.191691 8.590113,-1.191691 8.792571,-0.150448 17.560227,0.318776 27.458573,0.09931 14.790158,-0.327928 22.111328,-0.517701 33.080358,-0.927754 5.75844,-0.215267 18.59128,-1.929541 19.90591,0.533705 3.34968,6.276367 1.63146,23.894733 1.63146,34.40591 0.51756,9.415302 -0.18772,18.451333 -0.18772,27.649247 v 1.57434 c -4.10995,-5.4473 -12.34301,-3.92486 -18.30164,-5.11659 -7.08755,-0.36993 -14.15945,-0.49198 -21.25352,-0.49198 -4.60818,0.49629 -9.57235,-0.3608 -13.68811,0.54616 12.25988,-3.1382 6.5864,-10.281024 -0.2927,-25.552137 C 97.596274,56.963876 76.801697,63.161487 61.302023,63.135282 Z"
         id="path1088"
         sodipodi:nodetypes="csscssscscccccc" />
      <path
         style="fill:#74b0a8;fill-opacity:1;stroke:#74b0a8;stroke-width:0.264583px;stroke-linecap:butt;stroke-linejoin:miter;stroke-opacity:1"
         d="m 136.08154,104.59485 c -5.21574,0.005 -10.38474,-0.46753 -15.59683,-0.46753 -4.39012,0.0687 -9.24553,0.0367 -13.53591,0.0367 -6.141,0.37435 -12.559407,0.51275 -14.848098,1.01785 -5.261361,0.31163 -10.453586,0.74015 -15.788496,2.26441 -2.492486,0.89446 -5.960885,2.56793 -8.31851,4.19664 -0.95758,0.66152 -3.716334,2.63969 -5.34498,5.34671 -1.802313,7.94843 -1.113924,16.83441 5.300956,18.15371 24.822523,0.40511 52.913618,-2.03137 75.198578,-0.74284 15.85615,2.51753 9.67711,-15.63949 11.44881,-22.846 0.0416,-4.05356 -5.31593,-5.57125 -8.47104,-6.04192 -3.17124,-0.47308 -7.40466,-0.77826 -10.04448,-0.91769"
         id="path1096"
         sodipodi:nodetypes="cccccsccccsc" />
      <path
         style="fill:#89bcb5;fill-opacity:1;stroke:#89bcb5;stroke-width:0.264583px;stroke-linecap:butt;stroke-linejoin:miter;stroke-opacity:1"
         d="m 154.59706,111.5545 c 1.79994,-8.2942 16.48876,-6.46435 22.86591,-6.86292 6.84245,0.67934 14.09476,-0.22052 20.61856,-0.22052 2.48368,-4.810289 3.4364,-10.382658 4.74117,-15.601749 1.35005,-6.223878 3.38596,-12.67762 5.30598,-18.694641 1.38862,-4.35173 1.76804,-11.368518 2.63271,-14.162748 0.36888,-1.192058 9.04406,3.032142 12.67987,3.032142 5.48845,0.749562 12.34549,1.874414 18.4685,1.874414 2.74411,0.370698 5.81588,-0.591639 7.9387,-1.157726 -0.41094,-12.803607 -2.23108,-12.265671 -4.26018,-14.177725 -2.17113,-2.045897 -27.99012,-0.09258 -39.45779,-0.597073 -9.62109,0.199565 -19.14311,1.37614 -28.72265,0.771818 -2.76765,-0.174596 -20.7353,-1.258268 -21.72116,0.220519 -1.03684,1.555265 -0.9372,6.203332 -0.9372,8.104087 0.51153,4.513033 0.16539,9.388699 0.16539,13.782462 -0.64439,3.704961 0.20933,7.67029 -0.36739,11.322899 0.24357,3.416154 -0.0333,6.986062 0.0973,10.381023 -0.35975,4.602754 0.0833,9.318311 -0.16218,13.981938 -0.13531,2.63994 0.19409,5.51785 0.11446,8.0038"
         id="path1102"
         sodipodi:nodetypes="ccccsscccscsscccccc" />
      <path
         style="fill:#74b0a8;fill-opacity:1;stroke:#74b0a8;stroke-width:0.264583px;stroke-linecap:butt;stroke-linejoin:miter;stroke-opacity:1"
         d="m 204.18617,104.99754 c -2.04242,0.49582 -7.12516,-0.60672 -8.81198,-0.52648 -10.08298,0.47966 -17.48218,-0.20338 -27.3847,0.41553 -11.35278,0.60214 -12.53505,4.01675 -13.39243,6.66791 -0.72816,4.62024 -0.0404,7.13049 -0.18349,15.05357 -1.88657,13.48119 24.07429,7.54628 39.55901,8.65003 21.38485,-0.44129 37.31623,1.2902 46.67325,-1.30898 4.65777,-2.65625 5.24164,-6.25976 5.24164,-11.27204 0.39486,-9.52564 -1.90867,-9.03553 -3.47491,-11.4334 -4.48072,-4.24483 -11.70192,-3.53452 -17.00193,-5.30119 -6.90111,-1.74775 -14.40853,-0.18644 -21.22446,-0.94495"
         id="path1118"
         sodipodi:nodetypes="csccccccccc" />
      <path
         style="fill:#97c4be;fill-opacity:1;stroke:#97c4be;stroke-width:0.264583px;stroke-linecap:butt;stroke-linejoin:miter;stroke-opacity:1"
         d="m 244.93224,139.60444 c -3.01544,-3.39888 -2.80729,-4.03361 -4.28641,-5.65532 3.07031,-1.87039 4.77458,-4.3599 4.95407,-7.15383 0.44312,-4.08552 0.65276,-8.439 -0.33605,-11.55714 -0.55647,-1.7548 -1.77957,-2.7356 -2.85129,-3.99447 -0.11887,-5.8048 -0.16519,-12.02679 0.8709,-18.13695 0.88418,-4.392725 1.88405,-10.393128 3.99581,-14.248408 4.26917,0.321961 13.09392,6.649201 15.48689,8.222971 4.01746,2.642127 7.88191,5.192132 10.54056,8.736993 -8.92175,-7.706758 -18.44899,0.03122 -21.70644,9.260674 -1.8582,4.31 -2.97197,9.25322 -3.78422,14.04326 -0.94046,5.54618 -1.84341,10.30165 -2.3537,15.94503 -0.1213,1.34158 -0.30928,2.79646 -0.53012,4.53719 z"
         id="path1122"
         sodipodi:nodetypes="cccscccsccssc" />
      <path
         style="fill:#74b0a8;fill-opacity:1;stroke:#74b0a8;stroke-width:0.264583px;stroke-linecap:butt;stroke-linejoin:miter;stroke-opacity:1"
         d="m 275.30954,105.96088 c -0.30123,4.82103 -0.0201,10.0444 -0.29808,14.70437 -0.33935,5.68884 -0.46734,11.88149 -0.96297,17.5971 -0.49245,5.67888 -1.35867,11.48119 -1.91829,17.0774 -0.66619,4.63393 -2.23574,10.94075 -3.04936,14.39865 -0.52343,1.69178 -1.12966,2.93053 -3.22145,2.85274 l -20.39893,-0.28059 v 0 l -0.52822,-32.70611 c 1.02696,-4.40916 0.56701,-9.11728 1.7137,-13.47472 0.83166,-5.2491 1.64926,-10.20235 2.98825,-15.53741 1.87547,-6.3533 4.78962,-14.385405 12.45735,-17.260803 3.94076,-1.557496 8.95986,0.02242 11.21518,2.486779 2.44422,2.670776 2.00282,10.142594 2.00281,10.142594"
         id="path1132"
         sodipodi:nodetypes="csscccccccccsc" />
      <path
         style="fill:#4d8881;fill-opacity:1;stroke:#4d8881;stroke-width:0.264583px;stroke-linecap:butt;stroke-linejoin:miter;stroke-opacity:1"
         d="m 62.015822,142.10237 c 0.12838,-0.0228 0.255698,-0.0617 0.387008,-0.0665 9.167677,-0.34031 15.082992,-0.37195 22.402501,-0.45405 11.859178,-0.13302 23.672449,-0.19346 35.485279,-0.17967 12.26729,0.0143 24.73218,-0.18764 36.87775,-0.13407 14.17753,0.0625 28.43094,0.44747 42.56844,0.3609 13.66582,-0.0837 11.96114,0.29775 26.97099,0.0737 0.95423,-0.0142 17.28959,0.17051 18.24995,0.17051 l -0.0255,-2.26871 c -1.69275,-1.34501 -3.64232,-4.72136 -4.28641,-5.65532 -7.58111,1.72632 -15.76638,1.71296 -23.59134,1.43958 -13.03547,-0.45541 -26.13494,-0.10371 -38.42632,0.062 -5.88632,0.0793 -25.88841,2.50138 -24.2146,-8.8426 -2.46233,9.65243 -7.71852,7.98262 -14.36886,7.49644 -7.92172,-0.57912 -25.01981,0.13535 -37.49674,0.53902 -7.528767,0.24358 -15.811657,0.33662 -24.335744,0.48975 -3.852312,0.0692 -7.211392,0.0168 -10.262554,0.01 -2.876595,2.08156 -5.264385,4.04969 -5.93385,6.95907"
         id="path1136"
         sodipodi:nodetypes="csssssscccsscssscc" />
      <path
         style="fill:#89bcb5;fill-opacity:1;stroke:#89bcb5;stroke-width:0.264583px;stroke-linecap:butt;stroke-linejoin:miter;stroke-opacity:1"
         d="m 62.015822,141.92524 c -0.535205,7.54273 1.009636,15.52994 1.009636,23.19427 14.033755,0.32149 25.966547,0.13994 39.103852,0.35556 15.06601,0.24728 29.52059,-0.24926 44.43788,-0.0993 13.83625,-0.25417 29.43449,0.22635 42.13614,0.0237 9.81048,-0.17211 19.70223,0.006 29.71774,0.0597 8.96273,0.0482 17.31825,-0.39411 26.83416,-0.33966 -0.22899,-7.54348 0.0411,-16.09174 -0.29749,-23.42345 -53.60676,-0.34995 -107.21353,-0.86526 -160.82029,-0.35889 l -22.121628,0.58812"
         id="path1144"
         sodipodi:nodetypes="ccsccscccc" />
      <path
         style="fill:#74b0a8;fill-opacity:1;stroke:#74b0a8;stroke-width:0.264583px;stroke-linecap:butt;stroke-linejoin:miter;stroke-opacity:1"
         d="m 63.025458,165.11951 0.05126,6.99463 c 140.451952,-0.48138 175.968652,-0.24237 182.383742,0.19641 l -0.20523,-7.19104 c -63.11359,-0.20516 -121.34908,-0.12923 -182.229772,0 z"
         id="path1150"
         sodipodi:nodetypes="ccccc" />
      <path
         style="fill:#e4d763;fill-opacity:1;stroke:#e4d763;stroke-width:0.26458300000000001px;stroke-linecap:butt;stroke-linejoin:miter;stroke-opacity:1"
         d="m 62.111614,63.091991 c -5.361731,0.595016 -11.549257,-2.239002 -7.653566,4.995849 3.052542,5.128954 4.715185,10.401977 6.415463,15.488081 0.591254,1.768641 1.02225,3.688137 1.645724,5.454648 0.688206,2.042049 1.186694,3.989259 1.870719,5.916261 0.735107,2.074 2.083851,10.73831 2.371347,13.94986 0.09535,1.06519 0.250741,2.80477 0.274815,3.40771 4.69139,-3.50963 10.727884,-5.25925 16.062124,-6.18558 2.957559,-0.5099 5.999905,-0.79756 9.002462,-0.93699 5.868899,-0.0113 11.301938,-0.98153 16.718858,-1.37793 6.00846,0.29897 2.25637,-3.853333 0.90025,-6.081252 -0.66117,-1.073269 -1.179,-2.307306 -1.41468,-3.56424 -0.82404,-1.441702 -1.52098,-4.827904 -1.98421,-6.02614 -1.4418,-3.729529 -3.49733,-8.65362 -4.61221,-11.775285 -1.988206,-6.400792 -4.192173,-21.261702 -5.533116,-22.031857 -0.986138,-0.566377 -1.656624,1.116515 -9.695828,3.676416 -7.342736,2.237601 -10.631799,3.360308 -17.91678,4.507071 -1.881384,0.396316 -4.53125,0.682389 -6.451372,0.583378"
         id="path1076"
         sodipodi:nodetypes="ccsccsccccccscsccc" />
      <path
         style="fill:#4d8881;fill-opacity:1;stroke:#4d8881;stroke-width:0.264583px;stroke-linecap:butt;stroke-linejoin:miter;stroke-opacity:1"
         d="m 154.52795,131.24053 c -1.82846,-20.82475 -0.428,-48.515774 0.81871,-69.709933 0.13011,-3.745741 -0.47743,-6.207712 -0.69349,-9.664558"
         id="path1192"
         sodipodi:nodetypes="ccc" />
      <path
         style="fill:#d273c3;fill-opacity:1;stroke:#d075c1;stroke-width:0.26458300000000001px;stroke-linecap:butt;stroke-linejoin:miter;stroke-opacity:1"
         d="m 198.08153,104.47106 c 2.06455,-4.671085 3.62993,-9.82298 4.60557,-15.026398 1.07528,-4.675411 2.51578,-9.309234 3.74768,-13.928882 1.53166,-4.864561 3.33708,-18.304573 4.27914,-19.537951 0.59532,-0.779398 3.62482,0.456871 8.21313,1.98631 8.63196,1.868567 19.86014,3.489864 27.54546,2.498454 6.82734,-0.88073 10.20291,-3.957435 5.12183,4.934447 -3.604,9.789137 -7.20416,20.20187 -8.43228,29.856528 -1.05504,4.605672 -0.812,9.472622 -0.812,14.241192 -0.0623,0.58121 0.03,1.26139 0.0625,1.74892 -4.59846,-3.55873 -10.2522,-4.02431 -15.67784,-4.99691 -7.34371,-1.31643 -15.06713,-0.61309 -22.54855,-1.24923 -2.09649,-0.17826 -4.93372,0.34048 -6.10464,-0.52648 z"
         id="path1110"
         sodipodi:nodetypes="cccscsccccssc" />
    </g>
  </g>
</svg>
