<?xml version="1.0" encoding="UTF-8" standalone="no"?>
<svg
   xmlns:dc="http://purl.org/dc/elements/1.1/"
   xmlns:cc="http://creativecommons.org/ns#"
   xmlns:rdf="http://www.w3.org/1999/02/22-rdf-syntax-ns#"
   xmlns:svg="http://www.w3.org/2000/svg"
   xmlns="http://www.w3.org/2000/svg"
   xmlns:sodipodi="http://sodipodi.sourceforge.net/DTD/sodipodi-0.dtd"
   xmlns:inkscape="http://www.inkscape.org/namespaces/inkscape"
   sodipodi:docname="jerry-leaf-new.svg"
   inkscape:version="1.1-dev (bc69992, 2020-04-15)"
   id="svg2769"
   version="1.1"
   viewBox="0 0 102.38067 121.36598"
   height="121.36598mm"
   width="102.38067mm">
  <defs
     id="defs2763" />
  <sodipodi:namedview
     inkscape:window-maximized="1"
     inkscape:window-y="23"
     inkscape:window-x="0"
     inkscape:window-height="1035"
     inkscape:window-width="1920"
     showgrid="false"
     inkscape:current-layer="layer1"
     inkscape:document-units="mm"
     inkscape:cy="224.3377"
     inkscape:cx="154.82733"
     inkscape:zoom="1.7154137"
     inkscape:pageshadow="2"
     inkscape:pageopacity="0.0"
     borderopacity="1.0"
     bordercolor="#666666"
     pagecolor="#ffffff"
     id="base" />
  <metadata
     id="metadata2766">
    <rdf:RDF>
      <cc:Work
         rdf:about="">
        <dc:format>image/svg+xml</dc:format>
        <dc:type
           rdf:resource="http://purl.org/dc/dcmitype/StillImage" />
        <dc:title></dc:title>
      </cc:Work>
    </rdf:RDF>
  </metadata>
  <g
     transform="translate(504.0058,157.53418)"
     id="layer1"
     inkscape:groupmode="layer"
     inkscape:label="Layer 1">
    <g
       transform="translate(-555.58466,-237.6627)"
       id="g981"
       style="display:inline">
      <path
         style="fill:#1fa20d;fill-opacity:1;stroke:none;stroke-width:0.255;stroke-linecap:butt;stroke-linejoin:miter;stroke-miterlimit:4;stroke-dasharray:none;stroke-opacity:1"
         d="m 97.59055,97.804914 c 0,0 -3.144135,-10.363467 -14.006617,-10.208989 -10.370184,0.147477 -19.827814,10.97635 -27.790496,20.186115 -0.743255,0.85966 24.337101,-11.33661 26.107082,-5.6969 0.64211,2.04596 -2.490757,1.10008 -11.15547,3.14211 -5.087205,1.19891 -13.998865,1.60182 -15.05763,3.38182 -6.092469,10.24268 -4.00259,26.40101 -2.560964,25.60665 1.156518,-0.63726 -0.200271,-2.53286 3.906837,-5.6742 9.273073,-7.09255 15.649326,-11.04751 18.792172,-6.89698 1.159728,1.53156 -20.953741,12.44236 -21.507169,17.30606 -0.354268,3.11342 5.517134,15.93345 4.929813,19.51857 -0.410044,2.50299 16.536118,-19.97259 21.905496,-14.62093 2.773625,2.76448 -19.382888,14.87435 -16.063431,25.15019 3.190191,9.87567 20.291782,18.43158 34.914477,27.87523 1.64878,2.67527 2.58697,4.6998 2.86645,4.61847 0.2471,-0.0719 -0.57728,-1.91207 -0.68035,-4.0285 2.68926,-1.46168 7.64156,-4.2313 16.11778,-10.45244 3.80986,-2.79625 9.791,-6.35622 10.86112,-11.70755 1.51356,-7.56888 -12.55504,-14.75157 -4.53953,-16.97585 13.15876,-3.65151 9.80632,12.28268 9.80632,12.28268 4.558,-3.36515 13.59583,-14.05081 12.14473,-16.93025 -4.20163,-8.33734 -11.26799,-15.01864 -16.23083,-18.59221 -8.09867,-5.83158 -17.5993,-9.34676 -14.39214,-12.2736 4.46559,-4.07528 6.0879,-2.62299 15.35542,2.57191 13.36292,7.49057 18.46424,20.15217 18.63961,19.75892 1.1845,-2.65624 1.18256,-5.75698 1.87462,-8.40336 1.88528,-7.20918 2.91423,-13.62069 1.40908,-18.07405 -1.48611,-4.39701 -18.31111,-8.20583 -23.63377,-9.50505 -8.61073,-2.10183 -10.83146,0.14483 -10.64353,-2.50693 0.13712,-1.93483 1.56579,-2.78782 10.39142,-0.13366 12.67916,3.81304 20.07453,9.00949 20.06581,8.77767 -0.46753,-12.42654 -1.44137,-19.551416 -5.45111,-20.859128 -5.18777,-1.691909 -9.95154,-0.582217 -13.38578,-0.530561 -6.76311,0.101727 -8.92451,1.270727 -9.72797,-0.402437 -0.79988,-1.665716 4.46862,-3.72384 13.55812,-3.090089 4.43999,0.30957 8.88156,4.521716 9.08887,3.663136 0.55571,-2.301494 -1.82673,-7.06929 -6.75451,-10.089283 -4.84241,-2.967676 -12.01387,-4.279646 -17.14137,-3.747086 -11.03554,1.14619 -20.446118,17.506153 -20.446118,17.506153 z"
         id="path826-4"
         inkscape:connector-curvature="0"
         sodipodi:nodetypes="csssssssssssscccsssssssssssssssssssssscc" />
      <path
         style="fill:#6ce927;fill-opacity:1;stroke:none;stroke-width:0.26458332000000001px;stroke-linecap:butt;stroke-linejoin:miter;stroke-opacity:1"
         d="m 97.590548,97.804913 c 1.687348,28.669077 1.967415,56.634517 2.951122,84.951777 0.0274,0 1.02287,-82.51077 -1.38468,-85.006127"
         id="path869"
         inkscape:connector-curvature="0"
         sodipodi:nodetypes="ccc" />
      <path
         style="display:inline;fill:none;stroke:#6ce927;stroke-width:0.26458332000000001px;stroke-linecap:butt;stroke-linejoin:miter;stroke-opacity:1"
         d="m 97.835235,99.382404 c -11.6862,-1.793316 -21.29825,-5.869239 -32.08072,-1.606399"
         id="path881"
         inkscape:connector-curvature="0" />
      <path
         style="display:inline;fill:none;stroke:#6ce927;stroke-width:0.26458332000000001px;stroke-linecap:butt;stroke-linejoin:miter;stroke-opacity:1"
         d="M 99.156992,97.951017 C 107.88232,92.376928 119.6053,88.480826 131.75296,86.879629"
         id="path883"
         inkscape:connector-curvature="0"
         sodipodi:nodetypes="cc" />
      <path
         style="display:inline;fill:none;stroke:#6ce927;stroke-width:0.26458332000000001px;stroke-linecap:butt;stroke-linejoin:miter;stroke-opacity:1"
         d="M 99.412737,99.821465 C 112.36582,102.1279 122.75008,97.601746 134.9425,98.120573"
         id="path885"
         inkscape:connector-curvature="0" />
      <path
         style="display:inline;fill:none;stroke:#6ce927;stroke-width:0.26458332000000001px;stroke-linecap:butt;stroke-linejoin:miter;stroke-opacity:1"
         d="m 98.149013,105.98577 c -12.76963,1.96286 -28.58728,2.12793 -37.79761,8.03199"
         id="path889"
         inkscape:connector-curvature="0" />
      <path
         style="display:inline;fill:none;stroke:#6ce927;stroke-width:0.26458332000000001px;stroke-linecap:butt;stroke-linejoin:miter;stroke-opacity:1"
         d="m 98.725057,120.33484 c -12.18533,2.91023 -26.60171,9.02386 -33.54233,17.63979"
         id="path891"
         inkscape:connector-curvature="0" />
      <path
         style="display:inline;fill:none;stroke:#6ce927;stroke-width:0.26458332000000001px;stroke-linecap:butt;stroke-linejoin:miter;stroke-opacity:1"
         d="m 100.62698,125.5466 c 16.80039,3.62974 23.43088,16.91158 33.00778,25.92514"
         id="path893"
         inkscape:connector-curvature="0" />
      <path
         style="display:inline;fill:none;stroke:#6ce927;stroke-width:0.26458332000000001px;stroke-linecap:butt;stroke-linejoin:miter;stroke-opacity:1"
         d="m 99.640924,142.13282 c -8.31523,3.61409 -15.27864,9.90215 -20.7802,17.17207"
         id="path897"
         inkscape:connector-curvature="0" />
      <path
         style="display:inline;fill:none;stroke:#6ce927;stroke-width:0.26458332000000001px;stroke-linecap:butt;stroke-linejoin:miter;stroke-opacity:1"
         d="m 100.67304,152.77062 c 4.64261,4.56234 10.39865,7.88681 14.31562,13.0628"
         id="path899"
         inkscape:connector-curvature="0"
         sodipodi:nodetypes="cc" />
      <path
         style="display:inline;fill:none;stroke:#6ce927;stroke-width:0.26458332000000001px;stroke-linecap:butt;stroke-linejoin:miter;stroke-opacity:1"
         d="m 99.930138,156.1022 c -3.87961,3.60195 -8.004268,7.99 -10.539948,12.39987"
         id="path901"
         inkscape:connector-curvature="0"
         sodipodi:nodetypes="cc" />
      <path
         style="display:inline;fill:none;stroke:#6ce927;stroke-width:0.26458332000000001px;stroke-linecap:butt;stroke-linejoin:miter;stroke-opacity:1"
         d="m 100.22441,109.48622 c 13.81422,2.26015 31.99346,1.40376 41.67188,10.25261"
         id="path887"
         inkscape:connector-curvature="0" />
      <path
         style="display:inline;fill:none;stroke:#6ce927;stroke-width:0.26458332000000001px;stroke-linecap:butt;stroke-linejoin:miter;stroke-opacity:1"
         d="m 99.103412,129.1983 c -5.74837,1.93274 -12.39497,4.88515 -17.50615,8.75308"
         id="path895"
         inkscape:connector-curvature="0" />
    </g>
  </g>
  <g
     inkscape:label="Layer 2"
     id="layer2"
     inkscape:groupmode="layer">
    <path
       sodipodi:nodetypes="sss"
       id="path964"
       d="M 31.423518,41.0094 C 20.063826,48.300507 42.716866,62.30901 38.959046,42.576903 38.314498,39.192425 33.546191,39.646982 31.423518,41.0094 Z"
       style="fill:#403217;fill-opacity:1;stroke:none;stroke-width:0.207981px;stroke-linecap:butt;stroke-linejoin:miter;stroke-opacity:1" />
    <path
       sodipodi:nodetypes="ssss"
       id="path968"
       d="m 65.821333,36.972772 c -5.649944,0.389447 -7.123278,6.568892 -4.925854,10.254718 2.79434,4.687056 10.459302,6.197408 11.402164,-4.026724 0.30035,-3.256915 -3.606746,-6.425792 -6.47631,-6.227994 z"
       style="fill:#403217;fill-opacity:1;stroke:none;stroke-width:0.23px;stroke-linecap:butt;stroke-linejoin:miter;stroke-opacity:1" />
    <path
       sodipodi:nodetypes="sssss"
       id="path1181"
       d="m 58.357252,27.515299 c -4.161873,1.522162 -10.864619,6.011622 -6.539388,8.174236 2.738059,1.369031 8.074604,-3.627741 10.830864,-4.087116 4.187716,-0.697953 12.109048,2.887119 14.917981,2.656625 11.569664,-0.949379 -8.319037,-10.726803 -19.209457,-6.743745 z"
       style="fill:#403217;stroke:none;stroke-width:0.26458300000000001px;stroke-linecap:butt;stroke-linejoin:miter;stroke-opacity:1;fill-opacity:1" />
    <path
       style="fill:#403217;stroke:none;stroke-width:0.26458300000000001px;stroke-linecap:butt;stroke-linejoin:miter;stroke-opacity:1;fill-opacity:1"
       d="m 36.318843,30.391233 c 4.416106,0.369012 12.066513,2.928958 8.465962,6.157046 C 42.5055,38.591801 36.038815,35.181753 33.25909,35.466588 29.035724,35.899349 22.342397,41.449089 19.572316,41.968589 8.1626757,44.10835 24.763167,29.425634 36.318843,30.391233 Z"
       id="path1181-4"
       sodipodi:nodetypes="sssss" />
    <path
       sodipodi:nodetypes="ssssssss"
       id="path1198"
       d="m 34.574041,81.39598 c -3.183217,-2.436008 -3.131497,-9.899713 -0.349553,-12.753125 3.075747,-3.154764 9.011686,-5.951081 16.07059,-7.032235 5.862764,-0.897951 11.434229,-0.369564 15.571579,0.995153 5.274933,1.739952 6.088556,10.415154 4.332728,13.651279 -2.723273,5.019199 -2.884547,-1.892108 -7.076246,-6.286227 C 60.797979,67.533383 56.495946,66.492143 51.583413,67.210587 33.245804,69.892411 40.788706,86.151855 34.574041,81.39598 Z"
       style="fill:#403217;fill-opacity:1;stroke:none;stroke-width:0.264583px;stroke-linecap:butt;stroke-linejoin:miter;stroke-opacity:1" />
    <path
       id="path1200"
       d="m 44.774641,72.960642 c 4.974566,1.184987 8.117239,1.502637 11.156957,-2.642436"
       style="fill:none;stroke:#403217;stroke-width:0.965;stroke-linecap:butt;stroke-linejoin:miter;stroke-opacity:1;stroke-miterlimit:4;stroke-dasharray:none" />
  </g>
</svg>
