<?xml version="1.0" encoding="UTF-8" standalone="no"?>
<!-- Created with Inkscape (http://www.inkscape.org/) -->

<svg
   xmlns:dc="http://purl.org/dc/elements/1.1/"
   xmlns:cc="http://creativecommons.org/ns#"
   xmlns:rdf="http://www.w3.org/1999/02/22-rdf-syntax-ns#"
   xmlns:svg="http://www.w3.org/2000/svg"
   xmlns="http://www.w3.org/2000/svg"
   xmlns:sodipodi="http://sodipodi.sourceforge.net/DTD/sodipodi-0.dtd"
   xmlns:inkscape="http://www.inkscape.org/namespaces/inkscape"
   width="102.38067mm"
   height="121.36598mm"
   viewBox="0 0 102.38067 121.36598"
   version="1.1"
   id="svg2769"
   inkscape:version="0.92.4 (5da689c313, 2019-01-14)"
   sodipodi:docname="jerry-leaf.svg">
  <defs
     id="defs2763" />
  <sodipodi:namedview
     id="base"
     pagecolor="#ffffff"
     bordercolor="#666666"
     borderopacity="1.0"
     inkscape:pageopacity="0.0"
     inkscape:pageshadow="2"
     inkscape:zoom="1.4"
     inkscape:cx="469.83745"
     inkscape:cy="173.59297"
     inkscape:document-units="mm"
     inkscape:current-layer="layer1"
     showgrid="false"
     inkscape:window-width="2560"
     inkscape:window-height="1377"
     inkscape:window-x="1912"
     inkscape:window-y="-8"
     inkscape:window-maximized="1" />
  <metadata
     id="metadata2766">
    <rdf:RDF>
      <cc:Work
         rdf:about="">
        <dc:format>image/svg+xml</dc:format>
        <dc:type
           rdf:resource="http://purl.org/dc/dcmitype/StillImage" />
        <dc:title></dc:title>
      </cc:Work>
    </rdf:RDF>
  </metadata>
  <g
     inkscape:label="Layer 1"
     inkscape:groupmode="layer"
     id="layer1"
     transform="translate(504.0058,157.53418)">
    <g
       style="display:inline"
       id="g981"
       transform="translate(-555.58466,-237.6627)">
      <path
         sodipodi:nodetypes="csssssssssssscccsssssssssssssssssssssscc"
         inkscape:connector-curvature="0"
         id="path826-4"
         d="m 97.59055,97.804914 c 0,0 -3.144135,-10.363467 -14.006617,-10.208989 -10.370184,0.147477 -19.827814,10.97635 -27.790496,20.186115 -0.743255,0.85966 24.337101,-11.33661 26.107082,-5.6969 0.64211,2.04596 -2.490757,1.10008 -11.15547,3.14211 -5.087205,1.19891 -13.998865,1.60182 -15.05763,3.38182 -6.092469,10.24268 -4.00259,26.40101 -2.560964,25.60665 1.156518,-0.63726 -0.200271,-2.53286 3.906837,-5.6742 9.273073,-7.09255 28.026088,-16.91019 31.168934,-12.75966 1.159728,1.53156 -33.330503,18.30504 -33.883931,23.16874 -0.354268,3.11342 5.517134,15.93345 4.929813,19.51857 -0.410044,2.50299 25.818689,-26.32382 31.188067,-20.97216 2.773625,2.76448 -28.665459,21.22558 -25.346002,31.50142 3.190191,9.87567 20.291782,18.43158 34.914477,27.87523 1.64878,2.67527 2.58697,4.6998 2.86645,4.61847 0.2471,-0.0719 -0.57728,-1.91207 -0.68035,-4.0285 2.68926,-1.46168 7.64156,-4.2313 16.11778,-10.45244 3.80986,-2.79625 9.791,-6.35622 10.86112,-11.70755 1.51356,-7.56888 -29.963305,-32.40199 -21.94779,-34.62627 13.15876,-3.65151 27.21458,29.9331 27.21458,29.9331 4.558,-3.36515 13.59583,-14.05081 12.14473,-16.93025 -4.20163,-8.33734 -11.26799,-15.01864 -16.23083,-18.59221 -8.09867,-5.83158 -21.99631,-11.30099 -18.78915,-14.22783 4.46559,-4.07528 10.48491,-0.66876 19.75243,4.52614 13.36292,7.49057 18.46424,20.15217 18.63961,19.75892 1.1845,-2.65624 1.18256,-5.75698 1.87462,-8.40336 1.88528,-7.20918 2.91423,-13.62069 1.40908,-18.07405 -1.48611,-4.39701 -18.31111,-8.20583 -23.63377,-9.50505 -8.61073,-2.10183 -16.20558,-1.48369 -16.01765,-4.13545 0.13712,-1.93483 6.93991,-1.1593 15.76554,1.49486 12.67916,3.81304 20.07453,9.00949 20.06581,8.77767 -0.46753,-12.42654 -1.44137,-19.551416 -5.45111,-20.859128 -5.18777,-1.691909 -9.95154,-0.582217 -13.38578,-0.530561 -6.76311,0.101727 -8.92451,1.270727 -9.72797,-0.402437 -0.79988,-1.665716 4.46862,-3.72384 13.55812,-3.090089 4.43999,0.30957 8.88156,4.521716 9.08887,3.663136 0.55571,-2.301494 -1.82673,-7.06929 -6.75451,-10.089283 -4.84241,-2.967676 -12.01387,-4.279646 -17.14137,-3.747086 -11.03554,1.14619 -20.446118,17.506153 -20.446118,17.506153 z"
         style="fill:#1fa20d;fill-opacity:1;stroke:none;stroke-width:0.255;stroke-linecap:butt;stroke-linejoin:miter;stroke-miterlimit:4;stroke-dasharray:none;stroke-opacity:1" />
      <path
         sodipodi:nodetypes="ccc"
         inkscape:connector-curvature="0"
         id="path869"
         d="m 97.590548,97.804913 c 1.687348,28.669077 1.967415,56.634517 2.951122,84.951777 0.0274,0 1.02287,-82.51077 -1.38468,-85.006127"
         style="fill:#8cde80;fill-opacity:1;stroke:none;stroke-width:0.26458332px;stroke-linecap:butt;stroke-linejoin:miter;stroke-opacity:1" />
      <path
         inkscape:connector-curvature="0"
         id="path881"
         d="m 97.835235,99.382404 c -11.6862,-1.793316 -21.29825,-5.869239 -32.08072,-1.606399"
         style="display:inline;fill:none;stroke:#8cde80;stroke-width:0.26458332px;stroke-linecap:butt;stroke-linejoin:miter;stroke-opacity:1" />
      <path
         sodipodi:nodetypes="cc"
         inkscape:connector-curvature="0"
         id="path883"
         d="M 99.156992,97.951017 C 107.88232,92.376928 119.6053,88.480826 131.75296,86.879629"
         style="display:inline;fill:none;stroke:#8cde80;stroke-width:0.26458332px;stroke-linecap:butt;stroke-linejoin:miter;stroke-opacity:1" />
      <path
         inkscape:connector-curvature="0"
         id="path885"
         d="M 99.412737,99.821465 C 112.36582,102.1279 122.75008,97.601746 134.9425,98.120573"
         style="display:inline;fill:none;stroke:#8cde80;stroke-width:0.26458332px;stroke-linecap:butt;stroke-linejoin:miter;stroke-opacity:1" />
      <path
         inkscape:connector-curvature="0"
         id="path889"
         d="m 98.149013,105.98577 c -12.76963,1.96286 -28.58728,2.12793 -37.79761,8.03199"
         style="display:inline;fill:none;stroke:#8cde80;stroke-width:0.26458332px;stroke-linecap:butt;stroke-linejoin:miter;stroke-opacity:1" />
      <path
         inkscape:connector-curvature="0"
         id="path891"
         d="m 98.725057,120.33484 c -12.18533,2.91023 -26.60171,9.02386 -33.54233,17.63979"
         style="display:inline;fill:none;stroke:#8cde80;stroke-width:0.26458332px;stroke-linecap:butt;stroke-linejoin:miter;stroke-opacity:1" />
      <path
         inkscape:connector-curvature="0"
         id="path893"
         d="m 100.62698,125.5466 c 16.80039,3.62974 23.43088,16.91158 33.00778,25.92514"
         style="display:inline;fill:none;stroke:#8cde80;stroke-width:0.26458332px;stroke-linecap:butt;stroke-linejoin:miter;stroke-opacity:1" />
      <path
         inkscape:connector-curvature="0"
         id="path897"
         d="m 99.640924,142.13282 c -8.31523,3.61409 -15.27864,9.90215 -20.7802,17.17207"
         style="display:inline;fill:none;stroke:#8cde80;stroke-width:0.26458332px;stroke-linecap:butt;stroke-linejoin:miter;stroke-opacity:1" />
      <path
         sodipodi:nodetypes="cc"
         inkscape:connector-curvature="0"
         id="path899"
         d="m 100.67304,152.77062 c 4.64261,4.56234 10.39865,7.88681 14.31562,13.0628"
         style="display:inline;fill:none;stroke:#8cde80;stroke-width:0.26458332px;stroke-linecap:butt;stroke-linejoin:miter;stroke-opacity:1" />
      <path
         sodipodi:nodetypes="cc"
         inkscape:connector-curvature="0"
         id="path901"
         d="m 99.930138,156.1022 c -3.87961,3.60195 -8.004268,7.99 -10.539948,12.39987"
         style="display:inline;fill:none;stroke:#8cde80;stroke-width:0.26458332px;stroke-linecap:butt;stroke-linejoin:miter;stroke-opacity:1" />
      <path
         inkscape:connector-curvature="0"
         id="path887"
         d="m 100.22441,109.48622 c 13.81422,2.26015 31.99346,1.40376 41.67188,10.25261"
         style="display:inline;fill:none;stroke:#8cde80;stroke-width:0.26458332px;stroke-linecap:butt;stroke-linejoin:miter;stroke-opacity:1" />
      <path
         inkscape:connector-curvature="0"
         id="path895"
         d="m 99.103412,129.1983 c -5.74837,1.93274 -12.39497,4.88515 -17.50615,8.75308"
         style="display:inline;fill:none;stroke:#8cde80;stroke-width:0.26458332px;stroke-linecap:butt;stroke-linejoin:miter;stroke-opacity:1" />
    </g>
  </g>
</svg>
